<?xml version="1.0" standalone="no"?>
<!DOCTYPE svg PUBLIC "-//W3C//DTD SVG 20010904//EN"
        "http://www.w3.org/TR/2001/REC-SVG-20010904/DTD/svg10.dtd">
<svg version="1.0" xmlns="http://www.w3.org/2000/svg"
     width="48.000000pt" height="46.000000pt" viewBox="0 0 48.000000 46.000000"
     preserveAspectRatio="xMidYMid meet">

    <g transform="translate(0.000000,46.000000) scale(0.100000,-0.100000)"
       fill="#000000" stroke="none">
        <path d="M206 394 c-3 -9 -6 -87 -6 -174 0 -170 7 -194 50 -183 15 4 20 0 20
-16 0 -29 15 -26 40 9 13 19 36 34 63 41 23 7 48 19 55 28 14 17 17 228 3 249
-9 14 -161 62 -197 62 -12 0 -25 -7 -28 -16z m184 -174 c0 -93 -1 -100 -20
-100 -19 0 -20 7 -20 100 0 93 1 100 20 100 19 0 20 -7 20 -100z m-50 -29 c0
-75 -6 -91 -36 -91 -2 0 -4 38 -4 85 0 78 2 85 20 85 18 0 20 -7 20 -79z m-52
-33 c-2 -50 -6 -63 -20 -66 -16 -3 -18 5 -18 62 0 60 2 66 20 66 19 0 21 -5
18 -62z"/>
        <path d="M134 367 c-2 -7 -3 -76 -2 -152 3 -137 4 -140 26 -143 l22 -3 0 155
c0 150 -1 156 -20 156 -11 0 -23 -6 -26 -13z"/>
        <path d="M71 327 c-13 -13 -15 -185 -2 -206 5 -8 16 -11 25 -8 13 5 16 24 16
111 0 79 -3 105 -14 109 -7 3 -19 0 -25 -6z"/>
    </g>
</svg>